<?xml version="1.0" encoding="UTF-8" standalone="no"?>
<!-- Created with Inkscape (http://www.inkscape.org/) -->

<svg
   width="570.78308mm"
   height="698.39764mm"
   viewBox="0 0 570.78308 698.39764"
   version="1.1"
   id="svg1"
   sodipodi:docname="logo_project.svg"
   inkscape:version="1.3 (0e150ed6c4, 2023-07-21)"
   xml:space="preserve"
   inkscape:export-filename="logo"
   inkscape:export-xdpi="96"
   inkscape:export-ydpi="96"
   xmlns:inkscape="http://www.inkscape.org/namespaces/inkscape"
   xmlns:sodipodi="http://sodipodi.sourceforge.net/DTD/sodipodi-0.dtd"
   xmlns:xlink="http://www.w3.org/1999/xlink"
   xmlns="http://www.w3.org/2000/svg"
   xmlns:svg="http://www.w3.org/2000/svg"><sodipodi:namedview
     id="namedview1"
     pagecolor="#ffffff"
     bordercolor="#000000"
     borderopacity="0.25"
     inkscape:showpageshadow="2"
     inkscape:pageopacity="0.0"
     inkscape:pagecheckerboard="true"
     inkscape:deskcolor="#d1d1d1"
     inkscape:document-units="mm"
     inkscape:zoom="0.11313708"
     inkscape:cx="1131.3709"
     inkscape:cy="1286.0505"
     inkscape:window-width="1366"
     inkscape:window-height="715"
     inkscape:window-x="-8"
     inkscape:window-y="-8"
     inkscape:window-maximized="1"
     inkscape:current-layer="layer1" /><defs
     id="defs1"><linearGradient
       id="linearGradient21"
       inkscape:collect="always"><stop
         style="stop-color:#ff8f00;stop-opacity:1;"
         offset="0"
         id="stop21" /><stop
         style="stop-color:#f44336;stop-opacity:1;"
         offset="1"
         id="stop22" /></linearGradient><linearGradient
       id="linearGradient19"
       inkscape:collect="always"><stop
         style="stop-color:#f44336;stop-opacity:1;"
         offset="0"
         id="stop19" /><stop
         style="stop-color:#ff8f00;stop-opacity:1;"
         offset="1"
         id="stop20" /></linearGradient><linearGradient
       inkscape:collect="always"
       xlink:href="#linearGradient19"
       id="linearGradient20"
       x1="195.88792"
       y1="-85.452873"
       x2="246.6217"
       y2="-85.452873"
       gradientUnits="userSpaceOnUse"
       gradientTransform="matrix(1.0361777,0,0,1.0361777,170.74056,345.06993)" /><linearGradient
       inkscape:collect="always"
       xlink:href="#linearGradient21"
       id="linearGradient22"
       x1="387.96936"
       y1="-538.48773"
       x2="551.78632"
       y2="-538.48773"
       gradientUnits="userSpaceOnUse"
       gradientTransform="matrix(1.7988536,0,0,1.7988536,-445.24163,1175.5876)" /></defs><g
     inkscape:label="Layer 1"
     inkscape:groupmode="layer"
     id="layer1"
     transform="translate(-114.60848,-50.801205)"><g
       id="g1"><text
         xml:space="preserve"
         style="font-size:38.8056px;fill:none;fill-opacity:0;stroke:#0f0928;stroke-width:4.99999;stroke-dasharray:none;stroke-opacity:1"
         x="-896.29553"
         y="1061.8383"
         id="text2"><tspan
           sodipodi:role="line"
           id="tspan2"
           style="fill:none;fill-opacity:0;stroke:#0f0928;stroke-width:5;stroke-opacity:1"
           x="-896.29553"
           y="1061.8383" /></text><text
         xml:space="preserve"
         style="font-size:38.8056px;fill:none;fill-opacity:0;stroke:#0f0928;stroke-width:4.99999;stroke-dasharray:none;stroke-opacity:1"
         x="-901.33411"
         y="1021.735"
         id="text3"><tspan
           sodipodi:role="line"
           id="tspan3"
           style="stroke-width:5"
           x="-901.33411"
           y="1021.735" /></text><path
         id="path1"
         style="fill:#ffffff;fill-opacity:1;stroke:#0f0928;stroke-width:5;stroke-dasharray:none;stroke-opacity:1"
         d="m 399.99974,116.95237 a 232.24619,232.24619 0 0 0 -33.05173,2.3642 232.24619,232.24619 0 0 0 -32.37941,7.0435 232.24619,232.24619 0 0 0 -31.0472,11.58017 232.24619,232.24619 0 0 0 -29.0835,15.88069 232.24619,232.24619 0 0 0 -26.52706,19.8577 232.24619,232.24619 0 0 0 -23.43113,23.43113 232.24619,232.24619 0 0 0 -19.8577,26.52706 232.24619,232.24619 0 0 0 -15.88069,29.0835 232.24619,232.24619 0 0 0 -11.58017,31.0472 232.24619,232.24619 0 0 0 -7.0435,32.37941 232.24619,232.24619 0 0 0 -2.3642,33.05173 232.24619,232.24619 0 0 0 2.3642,33.05225 232.24619,232.24619 0 0 0 7.0435,32.37942 232.24619,232.24619 0 0 0 11.58017,31.0472 232.24619,232.24619 0 0 0 15.88069,29.08298 232.24619,232.24619 0 0 0 19.8577,26.52706 232.24619,232.24619 0 0 0 23.43113,23.43113 232.24619,232.24619 0 0 0 26.52706,19.85822 232.24619,232.24619 0 0 0 29.0835,15.88068 232.24619,232.24619 0 0 0 31.0472,11.57966 232.24619,232.24619 0 0 0 32.37941,7.04401 232.24619,232.24619 0 0 0 33.05173,2.36368 232.24619,232.24619 0 0 0 33.05225,-2.36368 232.24619,232.24619 0 0 0 32.37942,-7.04401 232.24619,232.24619 0 0 0 31.0472,-11.57966 232.24619,232.24619 0 0 0 29.08298,-15.88068 232.24619,232.24619 0 0 0 26.52706,-19.85822 232.24619,232.24619 0 0 0 23.43113,-23.43113 232.24619,232.24619 0 0 0 19.85822,-26.52706 232.24619,232.24619 0 0 0 15.88068,-29.08298 232.24619,232.24619 0 0 0 11.57966,-31.0472 232.24619,232.24619 0 0 0 7.04401,-32.37942 232.24619,232.24619 0 0 0 2.36368,-33.05225 232.24619,232.24619 0 0 0 -0.27957,-11.39568 232.24619,232.24619 0 0 0 -0.83871,-11.3683 232.24619,232.24619 0 0 0 -1.39526,-11.31352 232.24619,232.24619 0 0 0 -1.94923,-11.23136 232.24619,232.24619 0 0 0 -2.49753,-11.12232 232.24619,232.24619 0 0 0 -3.04012,-10.98641 232.24619,232.24619 0 0 0 -3.57549,-10.82363 232.24619,232.24619 0 0 0 -4.10259,-10.63552 232.24619,232.24619 0 0 0 -4.61936,-10.42107 232.24619,232.24619 0 0 0 -5.12527,-10.18233 232.24619,232.24619 0 0 0 -5.61878,-9.91825 232.24619,232.24619 0 0 0 -6.09885,-9.63042 232.24619,232.24619 0 0 0 -6.56342,-9.31985 232.24619,232.24619 0 0 0 -7.01301,-8.98653 232.24619,232.24619 0 0 0 -7.44606,-8.63151 232.24619,232.24619 0 0 0 -7.85999,-8.25583 232.24619,232.24619 0 0 0 -8.25582,-7.8605 232.24619,232.24619 0 0 0 -8.63152,-7.44554 232.24619,232.24619 0 0 0 -8.98653,-7.01301 232.24619,232.24619 0 0 0 -9.31984,-6.56394 232.24619,232.24619 0 0 0 -9.63094,-6.09834 232.24619,232.24619 0 0 0 -9.91826,-5.61878 232.24619,232.24619 0 0 0 -10.1818,-5.12526 232.24619,232.24619 0 0 0 -10.42159,-4.61936 232.24619,232.24619 0 0 0 -10.63501,-4.10259 232.24619,232.24619 0 0 0 -10.82415,-3.57601 232.24619,232.24619 0 0 0 -10.98641,-3.04013 232.24619,232.24619 0 0 0 -11.12231,-2.49752 232.24619,232.24619 0 0 0 -11.23136,-1.94872 232.24619,232.24619 0 0 0 -11.31352,-1.39526 232.24619,232.24619 0 0 0 -11.3683,-0.83871 232.24619,232.24619 0 0 0 -11.39569,-0.28009 z" /><path
         id="path24"
         style="fill:none;fill-opacity:1;stroke:#0f0928;stroke-width:31.6832;stroke-dasharray:none;stroke-opacity:1"
         inkscape:transform-center-x="-3.1336438e-06"
         inkscape:transform-center-y="113.76697"
         d="M 655.44225,56.600611 534.2665,364.62509 399.99989,705.92604 v 0 L 265.73326,364.62508 144.55748,56.600631" /><path
         id="path25"
         style="fill:#ffffff;fill-opacity:1;stroke:#0f0928;stroke-width:5;stroke-dasharray:none;stroke-opacity:1"
         d="M 399.99974,66.307401 A 282.89154,282.89154 0 0 0 117.10848,349.19866 282.89154,282.89154 0 0 0 399.99974,632.09044 282.89154,282.89154 0 0 0 682.89152,349.19866 282.89154,282.89154 0 0 0 399.99974,66.307401 Z m 0,50.644969 a 232.24619,232.24619 0 0 1 11.39569,0.28009 232.24619,232.24619 0 0 1 11.3683,0.83871 232.24619,232.24619 0 0 1 11.31352,1.39526 232.24619,232.24619 0 0 1 11.23136,1.94872 232.24619,232.24619 0 0 1 11.12231,2.49752 232.24619,232.24619 0 0 1 10.98641,3.04013 232.24619,232.24619 0 0 1 10.82415,3.57601 232.24619,232.24619 0 0 1 10.63501,4.10259 232.24619,232.24619 0 0 1 10.42159,4.61936 232.24619,232.24619 0 0 1 10.1818,5.12526 232.24619,232.24619 0 0 1 9.91826,5.61878 232.24619,232.24619 0 0 1 9.63094,6.09834 232.24619,232.24619 0 0 1 9.31984,6.56394 232.24619,232.24619 0 0 1 8.98653,7.01301 232.24619,232.24619 0 0 1 8.63152,7.44554 232.24619,232.24619 0 0 1 8.25582,7.8605 232.24619,232.24619 0 0 1 7.85999,8.25583 232.24619,232.24619 0 0 1 7.44606,8.63151 232.24619,232.24619 0 0 1 7.01301,8.98653 232.24619,232.24619 0 0 1 6.56342,9.31985 232.24619,232.24619 0 0 1 6.09885,9.63042 232.24619,232.24619 0 0 1 5.61878,9.91825 232.24619,232.24619 0 0 1 5.12527,10.18233 232.24619,232.24619 0 0 1 4.61936,10.42107 232.24619,232.24619 0 0 1 4.10259,10.63552 232.24619,232.24619 0 0 1 3.57549,10.82363 232.24619,232.24619 0 0 1 3.04012,10.98641 232.24619,232.24619 0 0 1 2.49753,11.12232 232.24619,232.24619 0 0 1 1.94923,11.23136 232.24619,232.24619 0 0 1 1.39526,11.31352 232.24619,232.24619 0 0 1 0.83871,11.3683 232.24619,232.24619 0 0 1 0.27957,11.39568 232.24619,232.24619 0 0 1 -2.36368,33.05225 232.24619,232.24619 0 0 1 -7.04401,32.37942 232.24619,232.24619 0 0 1 -11.57966,31.0472 232.24619,232.24619 0 0 1 -15.88068,29.08298 232.24619,232.24619 0 0 1 -19.85822,26.52706 232.24619,232.24619 0 0 1 -23.43113,23.43113 232.24619,232.24619 0 0 1 -26.52706,19.85822 232.24619,232.24619 0 0 1 -29.08298,15.88068 232.24619,232.24619 0 0 1 -31.0472,11.57966 232.24619,232.24619 0 0 1 -32.37942,7.04401 232.24619,232.24619 0 0 1 -33.05225,2.36368 232.24619,232.24619 0 0 1 -33.05173,-2.36368 232.24619,232.24619 0 0 1 -32.37941,-7.04401 232.24619,232.24619 0 0 1 -31.0472,-11.57966 232.24619,232.24619 0 0 1 -29.0835,-15.88068 232.24619,232.24619 0 0 1 -26.52706,-19.85822 232.24619,232.24619 0 0 1 -23.43113,-23.43113 232.24619,232.24619 0 0 1 -19.8577,-26.52706 232.24619,232.24619 0 0 1 -15.88069,-29.08298 232.24619,232.24619 0 0 1 -11.58017,-31.0472 232.24619,232.24619 0 0 1 -7.0435,-32.37942 232.24619,232.24619 0 0 1 -2.3642,-33.05225 232.24619,232.24619 0 0 1 2.3642,-33.05173 232.24619,232.24619 0 0 1 7.0435,-32.37941 232.24619,232.24619 0 0 1 11.58017,-31.0472 232.24619,232.24619 0 0 1 15.88069,-29.0835 232.24619,232.24619 0 0 1 19.8577,-26.52706 232.24619,232.24619 0 0 1 23.43113,-23.43113 232.24619,232.24619 0 0 1 26.52706,-19.8577 232.24619,232.24619 0 0 1 29.0835,-15.88069 232.24619,232.24619 0 0 1 31.0472,-11.58017 232.24619,232.24619 0 0 1 32.37941,-7.0435 232.24619,232.24619 0 0 1 33.05173,-2.3642 z" /><path
         d="m -293.1935,-179.73575 q -3.06435,-0.17928 -5.31331,-0.99415 -2.23115,-0.79485 -3.65476,-2.41556 -1.35238,-1.54061 -1.90045,-3.52766 -0.54806,-1.98705 -0.39644,-4.5785 0.15493,-2.6482 0.9699,-4.57449 0.81498,-1.92628 2.25548,-3.18962 1.64073,-1.44142 3.87479,-1.99402 2.23296,-0.53367 5.42971,-0.34664 l 16.85389,0.98604 -0.21912,3.74531 -17.04305,-0.99711 q -2.2888,-0.13391 -3.6306,0.0913 -1.34292,0.2441 -2.46427,0.91874 -1.27821,0.76035 -1.98543,2.14251 -0.70833,1.40108 -0.82564,3.40614 -0.11841,2.02398 0.40389,3.47807 0.54122,1.4552 1.73986,2.37944 1.03503,0.8008 2.39817,1.18424 1.38095,0.40346 3.44276,0.52408 l 17.13763,1.00265 -0.21912,3.7453 z m -4.04886,38.69231 q -3.76713,-0.77712 -6.48838,-3.06038 -2.72507,-2.26469 -3.85104,-5.34098 -0.77863,-2.13402 -0.81588,-4.57943 -0.0411,-2.42686 0.7437,-6.2311 l 1.43941,-6.97755 27.63181,5.7002 -1.42409,6.90331 q -0.83455,4.0455 -1.91839,6.29833 -1.06912,2.27521 -2.43048,3.71626 -2.34483,2.45703 -5.60228,3.42955 -3.25745,0.97251 -7.28438,0.14179 z m 0.84811,-3.82988 q 3.24752,0.66994 5.70792,-0.003 2.4604,-0.67261 4.20406,-2.6539 1.26475,-1.44163 1.99633,-3.20607 0.75014,-1.76061 1.27843,-4.32151 l 0.71205,-3.45166 -21.32234,-4.39861 -0.71204,3.45166 q -0.54744,2.65369 -0.56352,4.70116 -0.0199,2.06602 0.69714,3.93583 0.89263,2.33166 2.83473,3.79639 1.93827,1.48328 5.16724,2.14938 z m -13.07087,39.89713 q -3.61125,-1.32441 -5.96584,-3.98416 -2.36113,-2.64197 -3.0209,-5.85071 -0.45527,-2.22555 -0.13132,-4.64969 0.31742,-2.40636 1.65489,-6.05318 l 2.4531,-6.68882 26.48843,9.71455 -2.427,6.61766 q -1.42228,3.87809 -2.82664,5.94636 -1.3931,2.09258 -2.95217,3.31701 -2.68167,2.08419 -6.04696,2.56546 -3.36528,0.48128 -7.22559,-0.93448 z m 1.40388,-3.66283 q 3.11315,1.14174 5.64586,0.83949 2.5327,-0.30225 4.5496,-2.0046 1.4636,-1.23926 2.4475,-2.87645 1.00168,-1.63067 1.90203,-4.08561 l 1.2135,-3.30883 -20.44003,-7.49631 -1.21351,3.30883 q -0.93296,2.54388 -1.25095,4.56657 -0.32451,2.04047 0.10883,3.99561 0.53886,2.43784 2.2436,4.17307 1.69822,1.75302 4.79357,2.88823 z m -24.46408,18.624098 5.0625,-9.924871 2.56561,1.308673 -1.67889,3.291411 20.00165,10.202481 1.67889,-3.291411 2.56562,1.308673 -5.0625,9.924871 -2.56561,-1.308673 1.67889,-3.291411 -20.00166,-10.202481 -1.67889,3.291411 z m -18.36104,29.451568 2.2009,-3.337717 8.0876,2.019272 6.71743,-10.187153 -5.0418,-6.638292 2.09659,-3.179531 17.90034,24.105121 -2.75373,4.1761 z m 13.61393,-0.510141 14.28581,3.49627 -8.8305,-11.769378 z m -20.52234,51.3433427 -15.94844,-24.4013987 2.84172,-3.127097 21.32086,11.36138 -13.43285,-20.04153 2.77801,-3.056983 25.90084,13.449546 -2.58686,2.84664 -21.34891,-11.386866 13.43541,20.095061 -2.56137,2.818595 -21.49169,-11.56783 13.56545,20.290048 z m -46.48313,1.8151155 3.1174,-2.5032192 7.08046,4.3992995 9.51473,-7.6401565 -2.76633,-7.86347 2.96966,-2.384584 9.65716,28.4291833 -3.90045,3.1319898 z m 13.11591,3.6840524 12.52842,7.7037028 -4.80139,-13.9083644 z m -40.23112,13.1441072 3.98836,-2.3756449 24.40873,14.8379051 -12.91575,-21.68364099 3.01162,-1.79385431 14.4381,24.2394453 -4.99765,2.976829 -22.27464,-13.550724 11.79095,19.795276 -3.01161,1.793855 z m -50.87332,20.3172052 4.41881,-1.42297 20.46968,19.923397 -7.73631,-24.023873 3.33665,-1.074487 8.64817,26.855515 -5.53703,1.783068 -18.67772,-18.191326 7.06257,21.931704 -3.33665,1.074487 z m -35.1422,7.043428 3.93567,-0.703461 4.10683,7.254006 12.01217,-2.147054 1.33968,-8.227515 3.74913,-0.670121 -5.14539,29.580469 -4.92424,0.880159 z m 9.74707,9.518089 7.30539,12.764773 2.44984,-14.508421 z m -36.6355,16.962773 10.06635,-0.531298 -1.31126,-24.844205 3.74649,-0.197739 1.31127,24.844205 10.06635,-0.531298 0.17577,3.330221 -23.8792,1.260335 z m -21.1298,-25.812476 11.12453,0.613749 -0.15866,2.87573 -3.68925,-0.203539 -1.2369,22.419341 3.68926,0.203539 -0.15865,2.87573 -11.12454,-0.613749 0.15866,-2.87573 3.68926,0.203539 1.23689,-22.419341 -3.68926,-0.203539 z m -37.53517,19.803186 q -1.36456,-2.168268 -1.77722,-5.03279 -0.43131,-2.867851 0.18121,-6.300062 0.61253,-3.432212 2.03123,-5.989149 1.39671,-2.541613 3.37976,-4.054708 2.05233,-1.577722 4.57243,-2.109593 2.50144,-0.535199 5.50463,7.63e-4 2.92857,0.522647 5.16174,1.922055 2.21452,1.39608 3.56375,3.542365 1.34924,2.146286 1.78388,4.995483 0.41599,2.845869 -0.19987,6.296734 -0.60587,3.394905 -1.9806,5.921193 -1.37806,2.544942 -3.43705,4.159971 -1.96773,1.535077 -4.56576,2.072285 -2.6167,0.533879 -5.48931,0.02122 -2.98453,-0.532634 -5.17707,-1.944038 -2.21452,-1.396079 -3.55175,-3.501729 z m 2.24658,-10.647087 q -0.9654,5.409464 0.93689,8.770801 1.89895,3.37999 6.09595,4.129005 4.23431,0.755674 7.18521,-1.758787 2.92893,-2.499136 3.89433,-7.9086 0.97538,-5.465424 -0.96754,-8.814765 -1.94625,-3.330688 -6.08729,-4.069716 -4.14104,-0.739029 -7.10061,1.716142 -2.98156,2.470496 -3.95694,7.93592 z m -33.4173,-24.581966 4.40042,1.478868 4.64016,28.185431 8.04021,-23.923878 3.32276,1.116696 -8.98789,26.743734 -5.51399,-1.853111 -4.22679,-25.727727 -7.34001,21.840417 -3.32276,-1.116696 z m -32.43075,-15.2555236 3.57611,1.7876688 -1.04157,8.2705418 10.91476,5.456202 5.99049,-5.796611 3.40662,1.702945 -21.80137,20.644113 -4.47437,-2.236704 z m 2.12809,13.4562496 -1.76977,14.600551 10.63377,-10.169505 z m -25.78885,-28.8717336 14.85505,9.89526748 -15.64125,23.48107712 -3.1224,-2.079897 13.79245,-20.7056106 -11.73265,-7.8153705 z M -728.05,-43.517887 l 2.61845,2.686833 -9.89244,9.640655 9.8258,10.082411 9.89244,-9.640655 2.61844,2.686834 -20.20553,19.691268 -2.61845,-2.686834 7.92481,-7.723103 -9.8258,-10.082411 -7.9248,7.723103 -2.61845,-2.686833 z m -14.7099,-18.486672 6.77688,8.843405 -2.28605,1.751847 -2.24744,-2.932762 -17.82216,13.65749 2.24743,2.932762 -2.28605,1.751847 -6.77688,-8.843405 2.28605,-1.751847 2.24743,2.932762 17.82217,-13.65749 -2.24743,-2.932762 z m -21.02565,-29.362802 q 2.08895,1.451196 4.17103,3.412537 2.05612,1.954657 3.35657,4.157414 1.67613,2.839109 2.2897,5.667413 0.61357,2.828304 0.0297,5.41737 -0.59053,2.615015 -2.41701,4.925525 -1.84279,2.320143 -5.02455,4.198564 -5.82507,3.438954 -11.18996,2.029459 -5.39084,-1.416179 -8.89723,-7.355463 -1.22338,-2.072223 -1.98911,-4.524651 -0.79168,-2.459111 -1.07439,-5.658772 l 3.83443,-2.263737 0.17339,0.293701 q -0.093,0.737008 -0.16099,2.075379 -0.068,1.33837 0.0568,2.518879 0.15885,1.424474 0.68022,3.053003 0.49541,1.621846 1.56467,3.433002 2.40823,4.079179 6.44162,4.910519 4.00745,0.824656 8.47823,-1.814765 4.71553,-2.783915 5.87832,-6.814957 1.14647,-4.021409 -1.37735,-8.296389 -0.92476,-1.566404 -2.14991,-2.933467 -1.23478,-1.383379 -2.41785,-2.269195 l -5.9556,3.516017 3.84353,6.51037 -2.8391,1.676129 -5.73159,-9.708446 z m -11.86369,-32.454709 1.41373,3.47516 -12.79491,5.20507 5.30504,13.04063 12.7949,-5.20508 1.41373,3.47516 -26.1339,10.631497 -1.41373,-3.47516 10.24997,-4.169777 -5.30504,-13.04062 -10.24997,4.16977 -1.41372,-3.47516 z m -20.28478,-51.07758 q 1.62594,-0.27168 3.34253,0.22913 1.71348,0.48212 3.04409,1.66217 1.44591,1.29525 2.45285,3.18255 1.00382,1.86861 1.47224,4.67195 0.50277,3.00892 0.34495,5.51348 -0.16095,2.48587 -0.84827,5.15574 l -4.63486,0.77445 -0.0437,-0.26164 q 1.40389,-2.40539 1.89485,-5.33062 0.49096,-2.92523 0.085,-5.35479 -0.5746,-3.43877 -2.18266,-5.12956 -1.61118,-1.70949 -3.76041,-1.35037 -1.85021,0.30916 -2.57557,1.37169 -0.72849,1.04384 -0.90524,2.97523 -0.13957,1.46413 -0.10772,3.14935 0.0287,1.66654 -0.039,3.56051 -0.16662,3.83157 -1.75442,5.94111 -1.6096,2.09398 -4.6559,2.60299 -3.49483,0.58396 -6.21222,-1.99728 -2.73607,-2.57811 -3.49491,-7.11953 -0.49028,-2.93416 -0.3387,-5.4761 0.15158,-2.54193 0.65849,-4.56692 l 4.37321,-0.73073 0.0437,0.26164 q -1.08016,1.8134 -1.52447,4.55794 -0.46613,2.72897 -0.0133,5.43886 0.49652,2.97155 2.0329,4.57827 1.53326,1.58803 3.47691,1.26326 1.73807,-0.29042 2.57869,-1.353 0.84062,-1.06257 0.98606,-3.41137 0.0618,-1.23982 0.0671,-3.50757 0.005,-2.26775 0.14169,-3.86582 0.30393,-3.23977 1.70493,-5.08757 1.401,-1.8478 4.39123,-2.34745 z m 4.1392,-35.12991 q 0.48601,1.02794 0.90948,1.8682 0.42289,0.82133 0.89969,2.17181 0.39474,1.14443 0.68214,2.50063 0.30577,1.33669 0.35496,2.96548 0.0927,3.06819 -0.68352,5.61287 -0.7957,2.52631 -2.57677,4.43786 -1.74433,1.87253 -4.47859,2.97878 -2.7532,1.10681 -6.42745,1.21779 -3.48485,0.10526 -6.26081,-0.79665 -2.77596,-0.9019 -4.72596,-2.70076 -1.89147,-1.74376 -2.93403,-4.25246 -1.04314,-2.52765 -1.13695,-5.63371 -0.0686,-2.27273 0.41253,-4.54311 0.48059,-2.28932 1.77965,-5.09623 l 4.45076,-0.13443 0.009,0.28409 q -1.8804,2.38847 -2.70134,4.70702 -0.82093,2.31856 -0.74199,4.9322 0.0646,2.14015 0.81745,3.84247 0.7333,1.68395 2.23225,2.9846 1.45993,1.26392 3.66027,1.93677 2.18083,0.65449 5.02174,0.56868 2.97349,-0.0898 5.08962,-0.9499 2.11555,-0.87904 3.42192,-2.18859 1.36148,-1.36809 1.9901,-3.15005 0.6091,-1.80033 0.54961,-3.77003 -0.0818,-2.70833 -1.08133,-5.04773 -0.99954,-2.33939 -2.91795,-4.34773 l -0.008,-0.26515 z m 4.97356,-32.91859 -0.41407,3.72879 -13.72874,-1.52453 -1.55381,13.99239 13.72874,1.52453 -0.41407,3.72879 -28.04128,-3.11389 0.41407,-3.72879 10.99806,1.2213 1.55381,-13.99239 -10.99806,-1.2213 0.41407,-3.72879 z m -16.30553,-40.18722 q 2.27259,-1.18267 5.16127,-1.35968 2.89352,-0.19534 6.26414,0.69582 3.37062,0.89117 5.80297,2.51422 2.41888,1.59988 3.76473,3.70004 1.4046,2.17448 1.72859,4.72963 0.32884,2.53683 -0.45093,5.48613 -0.76039,2.87602 -2.33774,4.98727 -1.57251,2.09293 -3.82194,3.26212 -2.24944,1.16919 -5.12464,1.36936 -2.87036,0.18187 -6.2593,-0.71414 -3.33398,-0.88148 -5.73938,-2.4582 -2.42372,-1.58157 -3.86496,-3.76574 -1.36901,-2.08668 -1.69195,-4.71995 -0.3181,-2.65158 0.42777,-5.47265 0.77492,-2.93097 2.3609,-5.00074 1.57251,-2.09293 3.78047,-3.25349 z m 10.42769,3.10978 q -5.31239,-1.40455 -8.81804,0.21647 -3.52396,1.61618 -4.6137,5.73786 -1.09943,4.15833 1.16529,7.30498 2.25123,3.1235 7.56363,4.52805 5.36735,1.41908 8.86436,-0.24343 3.4787,-1.66734 4.55391,-5.73407 1.0752,-4.06673 -1.12971,-7.21718 -2.21839,-3.1736 -7.58574,-4.59268 z m 4.15468,-40.76673 q 2.42442,-0.828 5.30692,-0.56925 2.89005,0.24137 6.08863,1.62856 3.19859,1.38719 5.35965,3.35708 2.15121,1.94496 3.16645,4.22339 1.06215,2.36074 0.99879,4.93558 -0.0558,2.55744 -1.26961,5.35621 -1.18363,2.72923 -3.06012,4.57969 -1.86895,1.83307 -4.26845,2.65123 -2.39949,0.81816 -5.27215,0.58433 -2.86512,-0.25121 -6.08109,-1.64594 -3.16383,-1.37211 -5.30519,-3.29215 -2.15876,-1.92758 -3.25568,-4.3034 -1.04015,-2.26859 -0.96402,-4.9205 0.0837,-2.66929 1.24468,-5.34637 1.20626,-2.78138 3.08505,-4.58953 1.86895,-1.83307 4.22614,-2.64893 z m 9.84251,4.64034 q -5.04126,-2.18633 -8.75057,-1.11009 -3.72669,1.06869 -5.42299,4.98001 -1.71137,3.94609 0.0552,7.39713 1.75669,3.42613 6.79794,5.61246 5.09341,2.20895 8.80042,1.0904 3.68962,-1.12608 5.36329,-4.98525 1.67368,-3.85916 -0.0332,-7.30498 -1.71669,-3.47073 -6.81009,-5.67968 z m 29.56318,-23.80189 -9.20033,15.2952 -24.1768,-14.54277 1.93383,-3.21491 21.3191,12.82381 7.2665,-12.08028 z"
         id="text1"
         style="font-size:38.8056px;line-height:0px;letter-spacing:6.08542px;fill:#34328d;stroke:#34328d;stroke-width:3.5"
         transform="rotate(163.48834,-113.63398,140.44444)"
         aria-label="UDDIAWAN NATIONAL HIGH SCHOOL" /><path
         d="m -224.24085,926.34752 q 1.64649,-0.0809 3.29326,0.61603 1.64583,0.67798 2.83028,2.00467 1.28559,1.45452 2.06638,3.44605 0.77986,1.9726 0.91931,4.81139 0.14968,3.04696 -0.29814,5.5162 -0.44876,2.45032 -1.44169,5.02223 l -4.69346,0.23057 -0.013,-0.26496 q 1.67391,-2.22594 2.5015,-5.07429 0.82759,-2.84834 0.70673,-5.30862 -0.17107,-3.48224 -1.57174,-5.34847 -1.40159,-1.88515 -3.578,-1.77823 -1.87359,0.092 -2.71752,1.06307 -0.84486,0.95211 -1.24488,2.84988 -0.30878,1.43798 -0.47299,3.11549 -0.16514,1.65858 -0.45254,3.53185 -0.61078,3.78624 -2.43297,5.69696 -1.84205,1.89272 -4.92686,2.04427 -3.53902,0.17385 -5.93802,-2.7057 -2.41792,-2.87862 -2.64383,-7.47745 -0.14597,-2.97126 0.3,-5.47836 0.44597,-2.50709 1.18478,-4.45945 l 4.4285,-0.21755 0.013,0.26496 q -1.28359,1.67558 -2.04385,4.34988 -0.78011,2.65631 -0.6453,5.40046 0.14782,3.00912 1.48707,4.7835 1.33831,1.75546 3.30654,1.65877 1.76004,-0.0865 2.71845,-1.04414 0.95842,-0.95769 1.37583,-3.27367 0.20545,-1.22423 0.47425,-3.476 0.2688,-2.25177 0.58999,-3.82316 0.67838,-3.1825 2.28463,-4.85496 1.60625,-1.67246 4.63429,-1.82122 z m -20.93737,-25.69919 q 1.5869,-2.01125 4.14836,-3.35836 2.55836,-1.36579 5.99775,-1.93666 3.43938,-0.57088 6.32359,-0.0892 2.86241,0.46605 4.95169,1.82871 2.17336,1.40634 3.5176,3.60334 1.34112,2.17831 1.84064,5.18777 0.4871,2.93469 -0.0847,5.50733 -0.57487,2.55395 -2.14618,4.54341 -1.57131,1.98947 -4.11097,3.35216 -2.54277,1.344 -6.00085,1.91797 -3.402,0.56467 -6.24262,0.11421 -2.85931,-0.44736 -5.07005,-1.84749 -2.10487,-1.34087 -3.48021,-3.60954 -1.37843,-2.28736 -1.85623,-5.16597 -0.49641,-2.99077 0.10026,-5.52913 0.57487,-2.55395 2.11189,-4.51852 z m 10.78524,-1.44441 q -5.42077,0.89975 -7.95213,3.81685 -2.55005,2.92021 -1.85198,7.12598 0.70429,4.24315 4.061,6.18295 3.33493,1.9242 8.7557,1.02446 5.47685,-0.90905 7.98331,-3.86044 2.48777,-2.94828 1.799,-7.09798 -0.68877,-4.14969 -3.99252,-6.11748 -3.32553,-1.98339 -8.80238,-1.07434 z m 6.31847,-31.69511 4.774,17.19878 -27.18575,7.54615 -1.00346,-3.61503 23.9724,-6.6542 -3.77055,-13.58374 z m -10.11795,-26.80719 1.44429,3.72804 -6.33305,5.42026 4.40817,11.3785 8.33178,-0.26107 1.37584,3.55136 -30.01833,0.61586 -1.80707,-4.66447 z m -7.47485,11.38973 -11.12911,9.61515 14.70903,-0.37454 z m -5.48281,-36.74131 2.15275,4.11295 -16.15756,23.55595 22.36101,-11.70394 1.62554,3.10569 -24.99664,13.08347 -2.69754,-5.15378 14.75499,-21.49586 -20.41365,10.68469 -1.62555,-3.1057 z m -37.71387,-11.94518 q 0.58733,-2.49368 2.33867,-4.79772 1.74063,-2.31966 4.6158,-4.29162 2.87518,-1.97196 5.69243,-2.75537 2.79091,-0.78832 5.26045,-0.43717 2.5642,0.35515 4.71149,1.77745 2.13657,1.40667 3.86204,3.92245 1.68259,2.45327 2.25256,5.02631 0.55925,2.55742 -0.0232,5.02476 -0.58242,2.46733 -2.30742,4.77628 -1.73571,2.29332 -4.62652,4.27599 -2.84392,1.95053 -5.60849,2.74376 -2.78018,0.80394 -5.37564,0.47022 -2.47445,-0.3248 -4.68024,-1.79888 -2.2165,-1.48971 -3.86694,-3.89611 -1.71475,-2.50015 -2.24765,-5.05266 -0.55925,-2.55742 0.003,-4.98769 z m 9.16221,-5.87039 q -4.53153,3.10798 -5.59157,6.82195 -1.07567,3.72469 1.33569,7.24053 2.4328,3.54709 6.29494,3.88515 3.83579,0.33316 8.36732,-2.77482 4.5784,-3.14014 5.60139,-6.87464 1.00735,-3.72379 -1.37186,-7.19275 -2.37921,-3.46897 -6.20519,-3.85481 -3.85231,-0.39074 -8.43072,2.74939 z m -4.48726,-19.3468 12.96347,-3.81207 1.76636,2.12909 -11.65685,5.38702 z m -29.55315,-36.8073 3.46443,3.09005 -6.81655,27.73958 16.79977,-18.8352 2.616,2.3333 -18.77992,21.05527 -4.34115,-3.87202 6.23022,-25.31731 -15.33673,17.1949 -2.616,-2.3333 z m -42.48875,3.85668 24.71499,-17.0484 4.07748,2.89776 -7.97262,28.94679 -3.27434,-2.32699 7.16623,-25.35891 -21.59185,15.10698 z m -8.06536,-36.83341 3.48537,1.9587 -1.44076,8.21042 10.63779,5.97824 6.26411,-5.49979 3.32019,1.86588 -22.77529,19.5644 -4.36083,-2.45071 z m 1.47412,13.5435 -2.47458,14.49774 11.11366,-9.64275 z m -12.87804,-18.6128 4.12198,1.87546 -2.23644,4.91533 -4.12198,-1.87546 z m -54.83487,10.87928 17.70862,-24.24632 4.80508,1.39067 2.02137,29.95653 -3.85863,-1.11676 -1.59921,-26.30345 -15.40061,21.38341 z m -8.75092,-30.27227 10.9354,2.13282 -0.55134,2.82684 -3.62654,-0.70731 -4.29829,22.03818 3.62654,0.70731 -0.55134,2.82684 -10.9354,-2.13282 0.55134,-2.82684 3.62653,0.70731 4.29829,-22.03818 -3.62653,-0.70731 z m -29.41905,-3.63454 21.9,2.2729 -0.35991,3.46782 -19.41549,19.4922 16.56635,1.71935 -0.34426,3.31704 -20.84458,-2.16337 0.35013,-3.37358 19.5949,-19.56883 -17.7914,-1.84649 z m -14.15677,-0.29258 4.52782,0.0829 -0.0989,5.39928 -4.52782,-0.0829 z"
         id="text4"
         style="font-size:38.8056px;letter-spacing:2.64583px;fill:#34328d;stroke:#34328d;stroke-width:2"
         transform="rotate(133.74764,85.276781,838.22523)"
         aria-label="SOLANO, NVA. VIZ." /><g
         id="g27"
         transform="matrix(1.0355217,0,0,1.0355217,-194.95761,-768.35307)"><path
           style="fill:#2d2b6c;fill-opacity:1;stroke-width:2.68064"
           d="m 571.57043,1149.6873 c -0.16914,-0.441 -0.53038,-4.5975 -0.80256,-9.2369 -0.48779,-8.3143 -0.52021,-8.4379 -2.26802,-8.6493 -1.46893,-0.1778 -1.99124,-0.8964 -3.04439,-4.1883 -0.69917,-2.1855 -1.90023,-4.857 -2.66903,-5.9367 -0.96352,-1.3531 -2.88226,-2.4591 -6.17595,-3.5596 -3.5151,-1.1746 -6.23044,-1.5672 -10.27229,-1.4857 -3.02179,0.061 -9.0401,0.9277 -13.37402,1.9258 -4.33391,0.998 -10.31944,2.271 -13.30112,2.8287 -2.98169,0.5577 -10.04919,1.7988 -15.70549,2.7581 -5.65633,0.9592 -13.61483,1.8283 -17.68556,1.9313 -7.40134,0.1874 -7.40134,0.1874 -8.06557,-1.8053 -0.44386,-1.3316 -0.41417,-2.1473 0.0895,-2.4587 0.41455,-0.2563 1.99958,-3.8099 3.52227,-7.8971 1.52272,-4.0871 6.81511,-18.2829 11.76091,-31.5459 4.9458,-13.2632 9.44608,-25.2319 10.00058,-26.5971 0.55452,-1.3654 1.73081,-4.557 2.61398,-7.0926 1.28824,-3.6985 2.44117,-5.4167 5.83009,-8.6884 3.74164,-3.6122 4.55596,-4.0782 7.12677,-4.0782 1.59635,0 3.92766,-0.294 5.1807,-0.6535 1.25305,-0.3592 4.55112,-0.8616 7.32905,-1.1163 3.22094,-0.2952 6.63365,-1.1874 9.41979,-2.4625 2.40294,-1.0997 5.48606,-2.2245 6.8514,-2.4995 1.36531,-0.275 3.18927,-0.9475 4.05325,-1.4943 1.25875,-0.7967 5.86374,-0.9942 23.17612,-0.9942 19.38239,0 21.62888,0.1186 21.8346,1.1532 0.14073,0.7075 2.14912,1.8332 5.1941,2.9114 2.73065,0.9668 7.67769,2.5213 10.99346,3.4543 3.31579,0.9332 7.6245,1.7014 9.57498,1.7074 1.95043,0.01 5.14211,0.436 7.09255,0.9556 1.95045,0.5196 5.1421,2.0318 7.09254,3.3605 1.95048,1.3287 3.7797,2.735 4.06501,3.1252 0.28527,0.39 1.46208,3.2625 2.61508,6.3832 1.15303,3.1207 4.06152,10.7807 6.46326,17.0222 2.4018,6.2414 4.95115,12.9439 5.66523,14.8943 0.71409,1.9504 3.74816,9.9296 6.74236,17.7314 2.99422,7.8019 6.27054,16.4302 7.28068,19.174 1.01019,2.7439 1.6265,5.5366 1.36964,6.206 -0.3913,1.0197 -1.45852,1.2171 -6.57958,1.2171 -3.3619,0 -10.15418,-0.4938 -15.09396,-1.0972 -4.93977,-0.6035 -11.8539,-1.9106 -15.36472,-2.9048 -3.51084,-0.9941 -12.28788,-3.3673 -19.50454,-5.2735 -7.21669,-1.9062 -14.19875,-3.4715 -15.51572,-3.4785 -1.4852,-0.01 -4.50184,1.1257 -7.94401,2.9848 -4.80684,2.5963 -5.69666,3.3826 -6.64857,5.8751 -0.60444,1.5827 -1.09897,4.3489 -1.09897,6.147 0,2.2519 -0.33112,3.3965 -1.06388,3.6777 -0.86148,0.3306 -1.06596,1.9979 -1.07475,8.7642 -0.006,4.5958 -0.24528,8.6753 -0.53195,9.0653 -0.2866,0.3901 -2.39406,0.7166 -4.6833,0.7256 -2.45526,0.011 -4.28841,-0.3124 -4.46992,-0.7853 z m -1.50893,-28.1332 c -0.26433,-5.9025 -0.48187,-6.7625 -2.1689,-8.5719 -1.03132,-1.1062 -3.79012,-3.1733 -6.13068,-4.5936 -4.25553,-2.5824 -4.25553,-2.5824 -13.47586,-2.5639 -8.23143,0.016 -9.77473,0.2237 -14.38932,1.9285 -2.84293,1.0503 -8.26873,2.6927 -12.05735,3.6496 -3.7886,0.957 -9.92043,2.4088 -13.6263,3.2262 -3.70587,0.8175 -10.00937,1.6809 -14.0078,1.9187 -3.99845,0.2379 -7.26989,0.281 -7.26989,0.096 0,-0.1853 2.10263,-6.2178 4.67252,-13.4054 2.56987,-7.1878 5.252,-14.824 5.96024,-16.9695 0.70825,-2.1455 4.00012,-11.5608 7.31527,-20.923 3.3151,-9.3622 6.38051,-17.9273 6.81197,-19.0337 0.61317,-1.5721 0.58965,-1.9464 -0.10777,-1.714 -0.4907,0.1635 -1.91135,2.9836 -3.157,6.2669 -1.24566,3.2834 -4.89016,12.9913 -8.09891,21.5733 -3.20876,8.5821 -6.59979,17.6782 -7.53564,20.2138 -0.93583,2.5355 -2.44661,6.6848 -3.35735,9.2203 -0.91069,2.5356 -2.4997,6.8443 -3.53111,9.5751 -1.0314,2.7306 -2.33919,5.9704 -2.90618,7.1997 -0.56699,1.2292 -1.03088,2.5856 -1.03088,3.0143 0,0.5113 2.30063,0.7794 6.6866,0.7794 3.67765,0 9.18325,-0.3365 12.2347,-0.7477 3.0514,-0.4111 10.4951,-1.8257 16.5415,-3.1434 6.04643,-1.3177 15.52275,-3.0666 21.05854,-3.8865 10.06507,-1.4907 10.06507,-1.4907 16.91495,0.2487 4.15424,1.055 7.49017,2.3409 8.47693,3.2679 0.89486,0.8408 2.31671,3.4201 3.15962,5.7319 0.84294,2.3118 1.9329,4.2032 2.42219,4.2032 0.67034,0 0.81718,-1.6169 0.59584,-6.5606 z m 97.73421,0.484 c 0,-0.2215 -2.27145,-6.3653 -5.04767,-13.6532 -2.77621,-7.2879 -7.90537,-20.751 -11.39817,-29.9182 -3.49275,-9.167 -7.80673,-20.4974 -9.58661,-25.1785 -1.77992,-4.6811 -3.50749,-8.809 -3.83906,-9.1731 -0.33156,-0.364 -0.77537,-0.4894 -0.98624,-0.2786 -0.2107,0.2107 0.88154,3.86 2.42752,8.1091 1.54599,4.2493 6.2193,17.3008 10.38515,29.0035 4.16584,11.7029 8.85682,24.8779 10.42436,29.2779 1.56757,4.4002 2.70475,8.1457 2.52706,8.3234 -0.17773,0.1777 -2.05658,0.025 -4.1753,-0.3421 -2.11877,-0.3659 -5.92686,-0.9876 -8.46243,-1.3817 -2.5356,-0.394 -7.9614,-1.6547 -12.05737,-2.8015 -4.09594,-1.1469 -10.31968,-2.9498 -13.8305,-4.0066 -3.51079,-1.0568 -9.09621,-2.5188 -12.41197,-3.2488 -3.31577,-0.7301 -7.64567,-1.3327 -9.62201,-1.3393 -1.97634,-0.01 -5.47703,0.3363 -7.77933,0.7619 -2.30228,0.4256 -5.47277,1.4203 -7.04552,2.2105 -1.57272,0.79 -3.41804,1.9276 -4.10069,2.5277 -0.91775,0.8068 -1.2287,2.1253 -1.19322,5.0595 0.0389,3.2203 0.18444,3.687 0.7715,2.4759 0.39791,-0.8208 3.20687,-2.8156 6.24214,-4.4328 5.07491,-2.704 5.95113,-2.9406 10.89634,-2.9406 2.95771,0 7.069,0.351 9.13616,0.78 2.06718,0.4289 6.47141,1.7291 9.78719,2.8891 3.31578,1.1601 8.90116,2.9136 12.41199,3.897 3.51079,0.9832 9.57495,2.2006 13.47586,2.7053 3.9009,0.5047 10.68318,0.9534 15.0717,0.9972 4.38852,0.043 7.97912,-0.1017 7.97912,-0.323 z m -9.92959,-7.6379 c 0,-0.1311 -2.26177,-6.7539 -5.02618,-14.717 -2.76439,-7.9632 -5.28894,-15.2764 -5.61012,-16.2516 -0.32116,-0.9753 -3.0282,-8.7948 -6.01562,-17.3769 -2.9874,-8.5819 -6.0468,-17.5185 -6.79865,-19.8591 -0.75181,-2.3405 -1.60778,-4.6138 -1.90211,-5.0518 -0.29434,-0.438 -2.22648,-1.1561 -4.29369,-1.5958 -2.06714,-0.4398 -5.45936,-0.7995 -7.53817,-0.7995 -2.62958,0 -6.95992,-1.0571 -14.23098,-3.4736 -10.45125,-3.4737 -10.45125,-3.4737 -14.69154,5.4968 -2.33222,4.9335 -4.50584,10.566 -4.83034,12.5165 -0.32449,1.9504 -1.23575,6.42 -2.02502,9.9322 -1.01701,4.5259 -1.5563,10.2074 -1.85141,19.5046 -0.22893,7.2151 -0.55415,15.273 -0.72249,17.906 -0.16996,2.6599 -0.0161,4.7875 0.3458,4.7875 0.35854,0 1.54462,-0.3925 2.63573,-0.8722 1.0911,-0.4796 2.14339,-1.0662 2.33844,-1.3035 0.19514,-0.2373 1.79086,-0.786 3.54629,-1.2194 1.75539,-0.4334 5.26622,-0.9937 7.80182,-1.2452 3.06072,-0.3035 6.87074,-0.06 11.33632,0.7236 3.69938,0.6494 7.05061,1.4355 7.44717,1.7471 0.39658,0.3113 4.55103,1.8514 9.23213,3.4224 4.68108,1.5709 12.50062,3.6641 17.37676,4.6515 4.87614,0.9873 9.66362,2.1172 10.63884,2.5106 0.97523,0.3936 2.01251,0.7358 2.30507,0.7605 0.2926,0.025 0.53195,-0.062 0.53195,-0.1936 z m -154.59844,-3.3164 c 5.64565,-0.7849 11.06274,-1.7322 12.03796,-2.105 0.97523,-0.3728 6.56063,-2.082 12.41198,-3.7982 5.85137,-1.7162 12.82238,-3.5234 15.49113,-4.0162 2.66877,-0.4927 6.49876,-0.7088 8.51107,-0.4805 2.01234,0.2284 4.80981,0.7512 6.21659,1.1617 1.40679,0.4104 4.50825,2.0069 6.89215,3.5477 2.38394,1.5408 4.45167,2.5758 4.59501,2.2999 0.14342,-0.2759 -0.13457,-8.3211 -0.61751,-17.8784 -0.65204,-12.9023 -1.34547,-19.7509 -2.69309,-26.597 -0.99821,-5.0712 -2.11378,-10.1778 -2.47902,-11.3482 -0.36523,-1.1703 -2.5367,-6.1172 -4.82549,-10.9934 -2.28877,-4.8761 -4.4037,-9.247 -4.6998,-9.7131 -0.41459,-0.6525 -1.22761,-0.631 -3.53514,0.094 -1.6482,0.5174 -5.39044,1.9349 -8.31613,3.15 -3.44306,1.4299 -6.57034,2.221 -8.8657,2.2427 -1.95048,0.019 -4.82295,0.4935 -6.38331,1.0557 -1.56038,0.5621 -4.35307,1.0268 -6.206,1.0327 -1.85292,0.01 -3.36897,0.1171 -3.36897,0.2471 0,0.13 -1.79098,5.4761 -3.97997,11.8801 -2.18899,6.404 -7.77437,22.7802 -12.41199,36.3917 -4.6376,13.6114 -8.43198,24.862 -8.43198,25.0013 0,0.1394 0.0884,0.2532 0.19677,0.2532 0.10828,0 4.81586,-0.6422 10.4615,-1.4271 z m 81.87011,-70.3849 c 1.46086,-3.2182 2.81743,-6.2503 3.01457,-6.7379 0.27915,-0.6905 -2.57784,-0.8866 -12.91458,-0.8866 -10.33089,0 -13.19597,0.1965 -12.92549,0.8866 0.19112,0.4876 1.422,3.5197 2.73528,6.7379 2.38779,5.8513 2.38779,5.8513 9.91094,5.8513 7.52312,0 7.52312,0 10.17928,-5.8513 z"
           id="path18" /><g
           id="g26"><path
             d="m 528.0679,1089.0129 h -12.45608 v -2.349 h 4.7908 v -15.4233 h -4.7908 v -2.1018 q 0.97361,0 2.08632,-0.1545 1.1127,-0.17 1.6845,-0.4791 0.7109,-0.3863 1.11271,-0.9736 0.41726,-0.6027 0.47908,-1.6072 h 2.3954 v 20.7395 h 4.69807 z m 23.56203,-12.8888 q 0,3.0136 -0.69544,5.4708 -0.67998,2.4572 -2.07086,4.1881 -1.40633,1.7618 -3.52356,2.72 -2.11722,0.9581 -4.97625,0.9581 -0.80362,0 -1.51451,-0.093 -0.7109,-0.077 -1.26725,-0.2627 v -2.9518 h 0.15454 q 0.44818,0.2318 1.26725,0.4482 0.81907,0.2009 1.82359,0.2009 3.41538,0 5.34716,-2.04 1.94723,-2.0554 2.25631,-5.6562 -1.43724,0.8654 -2.70448,1.2363 -1.26725,0.3709 -2.76631,0.3709 -1.42178,0 -2.58085,-0.2781 -1.14361,-0.2782 -2.30267,-1.0818 -1.35997,-0.9427 -2.05541,-2.3954 -0.67999,-1.4527 -0.67999,-3.4772 0,-3.5236 2.31813,-5.7335 2.31813,-2.21 5.65624,-2.21 1.66905,0 3.09084,0.5255 1.42179,0.5099 2.48813,1.5454 1.3136,1.2827 2.0245,3.3072 0.71089,2.009 0.71089,5.208 z m -3.12175,-0.6645 q 0,-2.3954 -0.49453,-3.8481 -0.49454,-1.4527 -1.35997,-2.2563 -0.72635,-0.6954 -1.56088,-0.9891 -0.83452,-0.3091 -1.80814,-0.3091 -2.2254,0 -3.52356,1.3909 -1.28269,1.3909 -1.28269,3.9099 0,1.4682 0.41726,2.3954 0.41726,0.9273 1.40633,1.6227 0.69544,0.4791 1.52997,0.6491 0.83452,0.1545 1.8545,0.1545 1.20543,0 2.44176,-0.3245 1.23634,-0.3245 2.31813,-0.9427 0.0155,-0.3245 0.0309,-0.6336 0.0309,-0.3246 0.0309,-0.8191 z m 65.34875,-6.0117 -10.41613,19.565 h -3.3072 l 11.08066,-20.3068 H 598.1091 v -2.7045 h 15.74783 z m 20.19301,8.4844 q 0.7418,0.6645 1.22088,1.669 0.47908,1.0046 0.47908,2.5963 0,1.5764 -0.5718,2.89 -0.57181,1.3136 -1.60724,2.2872 -1.15906,1.0818 -2.73539,1.6072 -1.56087,0.51 -3.43083,0.51 -1.91632,0 -3.77083,-0.4636 -1.8545,-0.4482 -3.04447,-0.9891 v -3.2299 h 0.23181 q 1.31361,0.8654 3.09084,1.4372 1.77723,0.5718 3.43083,0.5718 0.97361,0 2.07086,-0.3245 1.09725,-0.3245 1.77724,-0.9582 0.71089,-0.6799 1.05088,-1.499 0.35545,-0.8191 0.35545,-2.0709 0,-1.2363 -0.40181,-2.0399 -0.38636,-0.8191 -1.0818,-1.2827 -0.69543,-0.4791 -1.6845,-0.6491 -0.98907,-0.1855 -2.13268,-0.1855 h -1.39088 v -2.5654 h 1.08179 q 2.34904,0 3.73992,-0.9736 1.40633,-0.989 1.40633,-2.8744 0,-0.8346 -0.35544,-1.4527 -0.35545,-0.6337 -0.98907,-1.0355 -0.66453,-0.4018 -1.42179,-0.5563 -0.75726,-0.1546 -1.71542,-0.1546 -1.46814,0 -3.12174,0.5255 -1.6536,0.5254 -3.12175,1.4836 h -0.15454 v -3.2299 q 1.09724,-0.5409 2.92084,-0.9891 1.83905,-0.4636 3.55447,-0.4636 1.6845,0 2.9672,0.309 1.2827,0.3091 2.31813,0.9891 1.1127,0.7418 1.68451,1.7927 0.5718,1.0509 0.5718,2.4572 0,1.9163 -1.35997,3.3536 -1.34451,1.4218 -3.18356,1.7927 v 0.2163 q 0.7418,0.1237 1.69996,0.5255 0.95816,0.3863 1.62269,0.9736 z"
             id="text18"
             style="font-size:31.6502px;-inkscape-font-specification:sans-serif;letter-spacing:2.15796px;fill:#34328d;stroke:#34328d;stroke-width:1.63122"
             aria-label="19   73" /></g></g><path
         style="fill:url(#linearGradient20);stroke-width:1.03618"
         d="m 395.23213,291.09703 c -12.61934,-2.3898 -21.48656,-12.7309 -21.51661,-25.09328 -0.0122,-4.75928 0.3671,-5.96524 4.21827,-13.4336 5.55246,-10.76756 7.48142,-15.10187 8.30081,-18.6516 0.39503,-1.71142 0.62504,-1.63853 2.0338,0.64452 1.32111,2.141 2.51067,5.54328 2.75482,7.87904 0.1726,1.65142 0.1726,1.65142 1.11577,0.33809 2.45408,-3.41728 5.22329,-10.55239 6.78744,-17.4885 0.40804,-1.80942 0.79085,-3.45272 0.85066,-3.65173 0.30387,-1.01092 6.22638,4.80833 8.76986,8.61697 5.03395,7.53789 6.75073,18.18893 4.06053,25.19184 -0.39871,1.0379 0.72573,-0.1464 1.98971,-2.09563 1.52441,-2.35088 2.90906,-5.8081 3.843,-9.5954 0.88947,-3.60699 0.80736,-3.64485 3.35631,1.54729 5.30795,10.8121 5.96313,23.25789 1.66918,31.70799 -5.2465,10.3244 -17.03466,16.2049 -28.23355,14.084 z"
         id="path19" /><path
         style="fill:url(#linearGradient22);stroke-width:1.79885"
         d="m 429.10193,283.48761 c 0.20531,-0.45807 1.18447,-3.1888 2.17593,-6.06839 1.80265,-5.23535 1.80265,-5.23535 27.87749,-9.12715 14.34116,-2.14061 29.71582,-4.45133 34.16592,-5.13508 4.45011,-0.68373 13.01715,-1.98243 19.03788,-2.88605 6.02071,-0.90362 15.08633,-2.30396 20.14581,-3.11176 10.70324,-1.70903 10.19264,-1.79623 11.99113,2.0487 3.80953,8.14412 12.01757,5.95646 -66.64308,17.76158 -9.55465,1.43385 -24.3328,3.67582 -32.84032,4.982 -17.85601,2.7416 -16.38748,2.59988 -15.91076,1.53615 z m -63.33438,0.0256 c -5.58149,-0.7388 -31.79699,-4.6275 -56.87564,-8.43638 -16.36066,-2.48488 -35.08315,-5.29552 -41.60551,-6.24593 -15.77706,-2.29885 -15.9408,-2.3899 -13.43509,-7.48024 3.07755,-6.25189 -0.1104,-6.19874 36.63501,-0.61058 16.27469,2.47494 34.83765,5.27141 41.25104,6.21415 16.72268,2.45823 35.82219,5.42503 35.90046,5.57635 0.0368,0.0713 0.6752,2.05721 1.41856,4.41307 0.74333,2.35594 1.65154,4.87261 2.01824,5.59242 0.70862,1.3912 -0.49981,1.61376 -5.30707,0.97714 z m -3.80758,-22.82151 c -3.31522,-0.81787 -52.50016,-11.46007 -62.349,-13.49049 -3.66479,-0.75554 -9.55464,-2.02192 -13.08853,-2.81416 -3.53393,-0.79227 -11.87411,-2.64009 -18.53376,-4.10625 -17.31963,-3.81309 -16.24798,-2.97607 -12.77757,-9.97988 2.94147,-5.9362 2.27904,-5.74356 12.15797,-3.53545 3.59741,0.80408 17.03539,3.687 29.86215,6.40645 12.82677,2.71946 31.78133,6.76099 42.12129,8.98122 10.33994,2.22019 20.69988,4.424 23.02211,4.89728 4.22222,0.86054 4.22222,0.86054 3.92993,3.9542 -0.16081,1.70152 -0.29377,4.75351 -0.29565,6.78221 -0.004,4.13704 0.23916,3.96275 -4.04894,2.90487 z m 72.436,-6.047 c -0.15757,-3.68393 -0.24273,-6.74137 -0.18927,-6.79435 0.12723,-0.12603 29.74604,-6.45792 39.83874,-8.51661 4.31921,-0.88103 19.09736,-4.05731 32.84033,-7.0584 29.10942,-6.35675 33.08719,-7.13255 34.61061,-6.75017 1.08065,0.27121 5.84484,8.85083 5.84484,10.52567 0,0.96529 -3.5243,1.89318 -22.38621,5.89386 -17.36612,3.68341 -84.4173,18.07519 -88.32009,18.95693 -1.95248,0.44107 -1.95248,0.44107 -2.23895,-6.25693 z m -77.19546,-17.7212 c -5.49719,-2.5043 -13.4217,-6.06418 -17.61002,-7.91087 -4.18833,-1.84669 -15.32551,-6.83577 -24.74924,-11.08682 -9.42374,-4.25105 -20.02545,-8.96154 -23.55936,-10.46773 -15.21789,-6.48611 -15.13666,-6.34693 -8.95738,-15.35236 2.14708,-3.12907 -7.23348,-6.91179 81.29942,32.78405 9.25512,4.14974 8.9832,3.92202 7.69663,6.44602 -0.51036,1.00122 -1.51189,3.6944 -2.22567,5.9849 -0.71377,2.29049 -1.43316,4.16265 -1.59865,4.1603 -0.1655,-9.2e-4 -4.79855,-2.0532 -10.29573,-4.55749 z m 74.80094,1.80214 c -0.10368,-0.18373 -0.56811,-1.51203 -1.03208,-2.95176 -0.46393,-1.43976 -1.47929,-3.88879 -2.25635,-5.44234 -1.28854,-2.5761 -1.34366,-2.87515 -0.62681,-3.39934 0.74558,-0.54516 47.48706,-21.90305 70.93757,-32.41393 12.64424,-5.66731 11.08526,-5.75053 14.98921,0.80011 3.69169,6.19451 5.12964,4.94517 -16.90534,14.68797 -7.31792,3.23563 -16.08959,7.16454 -19.49264,8.7309 -3.40302,1.56636 -8.43614,3.81373 -11.18473,4.99418 -2.74858,1.18044 -10.67311,4.7241 -17.61004,7.87477 -16.06413,7.29619 -16.59274,7.51995 -16.81879,7.11944 z m -61.98053,-21.88038 c -3.12466,-3.35742 -14.56951,-15.62733 -25.43301,-27.26652 -25.39636,-27.20977 -25.22515,-27.02035 -25.22515,-27.91166 0,-1.07858 2.89457,-4.46803 5.15116,-6.03185 2.5997,-1.80159 1.55307,-2.72998 24.07922,21.35922 39.70427,42.45933 35.51534,37.009 31.60711,41.12492 -1.88746,1.98775 -3.67169,3.88775 -3.96493,4.2222 -0.41562,0.47402 -1.78578,-0.7378 -6.2144,-5.49631 z m 49.29064,0.22661 c -1.70151,-1.63838 -3.62507,-3.31788 -4.27455,-3.73223 -1.18092,-0.75337 -1.18092,-0.75337 5.94932,-8.32832 3.92163,-4.16622 14.7135,-15.70828 23.98193,-25.64902 9.26843,-9.94074 18.30145,-19.62685 20.07338,-21.5247 3.79282,-4.06232 3.71988,-4.04855 7.15674,-1.35045 6.40332,5.02692 10.03708,-0.0996 -31.17506,43.9829 -8.8693,9.48705 -16.54165,17.77759 -17.04965,18.4234 -1.22229,1.55388 -1.1117,1.59711 -4.66211,-1.82158 z m -26.5327,-44.65645 c 0.21758,-44.38276 0.0356,-42.97526 5.51635,-42.67969 5.20774,0.28086 5.28447,0.92521 5.43589,45.66041 0.11225,33.14582 0.11225,33.14582 -4.17132,33.40457 -2.35596,0.14229 -4.88659,0.40732 -5.62367,0.58889 -1.34016,0.33014 -1.34016,0.33014 -1.15725,-36.97418 z"
         id="path20" /><path
         id="path28"
         style="fill:#0f0928;stroke-width:12.48"
         d="m 188.47994,479.05215 a 11.400718,11.400718 0 0 1 -11.40072,11.40072 11.400718,11.400718 0 0 1 -11.40071,-11.40072 11.400718,11.400718 0 0 1 11.40071,-11.40071 11.400718,11.400718 0 0 1 11.40072,11.40071 z" /><path
         id="path28-0"
         style="fill:#0f0928;stroke-width:12.48"
         d="m 633.31679,479.00229 a 11.400718,11.400718 0 0 1 -11.40071,11.40072 11.400718,11.400718 0 0 1 -11.40072,-11.40072 11.400718,11.400718 0 0 1 11.40072,-11.40072 11.400718,11.400718 0 0 1 11.40071,11.40072 z" /></g></g></svg>
